<?xml version="1.0" encoding="utf-8"?>
<!-- Generator: Adobe Illustrator 18.1.1, SVG Export Plug-In . SVG Version: 6.00 Build 0)  -->
<svg version="1.1"
	 id="svg2" xmlns:rdf="http://www.w3.org/1999/02/22-rdf-syntax-ns#" xmlns:svg="http://www.w3.org/2000/svg" xmlns:sodipodi="http://inkscape.sourceforge.net/DTD/sodipodi-0.dtd" xmlns:inkscape="http://www.inkscape.org/namespaces/inkscape" xmlns:dc="http://purl.org/dc/elements/1.1/" xmlns:cc="http://web.resource.org/cc/" sodipodi:docname="logo-python-generic.svg" inkscape:version="0.43" sodipodi:version="0.32" sodipodi:docbase="/home/sdeibel"
	 xmlns="http://www.w3.org/2000/svg" xmlns:xlink="http://www.w3.org/1999/xlink" x="0px" y="0px" viewBox="67.5 337.98 150 150"
	 enable-background="new 67.5 337.98 150 150" xml:space="preserve">
<g>
	<path fill="#9ED7EF" d="M112.964,412.165c4.062-0.578,10.018-0.955,18.157-1.151c2.829-1.543,5.886-2.584,9.09-3.098
		c0.443-0.128,1.492-0.312,3.084-0.312c3.685,0,11.836,1.003,25.2,7.681l2.97-0.9c0.36-1.291,1.357-2.31,2.681-2.684l11.846-3.356
		c0.246-5.005,0.307-9.162-3.669-12.035l-6.692-4.836c-0.452-0.326-1.014-0.459-1.564-0.371c-0.55,0.088-1.042,0.392-1.368,0.843
		l-6.39,8.843c-3.419,4.449-12.189,5.784-18.133,2.789l-19.32-13.962c-3.283-2.345-7.078-3.301-10.68-2.698
		c-3.593,0.604-6.751,2.696-9.123,6.035l-8.553,13.3c-0.216,0.298-0.502,0.716-0.765,1.163l11.022,3.12
		C111.675,410.796,112.45,411.37,112.964,412.165z"/>
</g>
<path d="M155.862,400.821C155.861,400.821,155.862,400.821,155.862,400.821c-2.697,0-5.571-0.861-8.541-2.559
	c-0.064-0.037-0.128-0.078-0.188-0.121l-19.442-14.049c-1.766-1.154-4.32-1.82-7.113-1.82c-4.604,0-8.764,1.785-10.857,4.659
	l-6.422,8.887c-0.678,0.94-1.992,1.152-2.932,0.472l-6.692-4.836c-6.009-4.342-7.402-11.39-3.926-19.845
	c3.796-9.256,7.271-14.064,14.871-20.578c3.495-3.004,7.543-4.593,11.704-4.593c3.58,0,7.102,1.177,10.183,3.404l5.787,4.182
	c0.05-0.316,0.173-0.626,0.373-0.904l5.36-7.418c2.416-3.343,5.332-6.437,10.268-6.437c2.616,0,5.602,0.855,9.394,2.691
	c3.321,1.607,6.843,3.72,10.182,6.109c3.577,2.56,6.888,5.37,9.839,8.353c5.685,5.748,6.79,14.1,2.63,19.858l-13.394,18.534
	c-0.021,0.028-0.041,0.055-0.062,0.082C163.734,398.826,160.026,400.821,155.862,400.821z M149.079,357.482
	c-1.18,0-2.309-0.365-3.263-1.054c-1.217-0.88-2.015-2.185-2.245-3.673c-0.229-1.48,0.131-2.967,1.013-4.186
	c1.068-1.479,2.791-2.363,4.605-2.363c1.178,0,2.303,0.363,3.254,1.051c2.505,1.809,3.053,5.342,1.223,7.876
	C152.603,356.605,150.888,357.482,149.079,357.482z M149.189,350.405c-0.471,0-0.92,0.233-1.202,0.624
	c-0.23,0.318-0.324,0.703-0.266,1.083c0.058,0.371,0.255,0.695,0.556,0.912c0.295,0.213,0.599,0.258,0.802,0.258
	c0.465,0,0.907-0.228,1.184-0.609c0.473-0.656,0.349-1.559-0.278-2.012C149.691,350.45,149.391,350.405,149.189,350.405z"/>
<path fill="#9ED7EF" d="M149.5,394.67c2.292,1.294,4.432,1.951,6.361,1.951h0.001c2.853,0,5.375-1.411,7.71-4.313l13.362-18.491
	c3.346-4.631,1.42-10.772-2.212-14.444c-2.745-2.775-5.96-5.503-9.296-7.891c-3.149-2.253-6.457-4.24-9.568-5.745
	c-3.157-1.528-5.631-2.271-7.563-2.271c-2.529,0-4.389,1.273-6.863,4.696l-4.131,5.716l17.764,12.836
	c0.451,0.326,0.754,0.818,0.843,1.368c0.089,0.55-0.045,1.113-0.371,1.564l-1.787,2.473c-0.679,0.941-1.99,1.152-2.933,0.472
	l-26.77-19.345c-2.361-1.706-5.031-2.608-7.723-2.608c-3.143,0-6.244,1.238-8.969,3.58c-7.014,6.011-10.219,10.446-13.721,18.986
	c-1.887,4.586-2.983,10.883,2.5,14.845l4.99,3.606l5.196-7.191c2.918-4.005,8.246-6.393,14.257-6.393
	c3.602,0,6.973,0.91,9.494,2.562L149.5,394.67z M149.079,357.482c-1.18,0-2.309-0.365-3.263-1.054
	c-1.217-0.88-2.015-2.185-2.245-3.673c-0.229-1.48,0.131-2.967,1.013-4.186c1.068-1.479,2.791-2.363,4.605-2.363
	c1.178,0,2.303,0.363,3.254,1.051c2.505,1.809,3.053,5.342,1.223,7.876C152.603,356.605,150.888,357.482,149.079,357.482z
	 M149.189,350.405c-0.471,0-0.92,0.233-1.202,0.624c-0.23,0.318-0.324,0.703-0.266,1.083c0.058,0.371,0.255,0.695,0.556,0.912
	c0.295,0.213,0.599,0.258,0.802,0.258c0.465,0,0.907-0.228,1.184-0.609c0.473-0.656,0.349-1.559-0.278-2.012
	C149.691,350.45,149.391,350.405,149.189,350.405z"/>
<g>
	<g>
		<polygon fill="#48A0DC" points="97.929,446.038 106.097,417.191 106.101,417.178 106.123,417.101 90.676,412.728 79.93,450.673 
			95.377,455.049 97.926,446.048 		"/>
	</g>
	<g>
		<path fill="#48A0DC" d="M174.745,456.731c-0.17-0.396-0.453-0.797-0.91-1.185l-28.344-23.109c-1.679,0.56-3.948,1.181-5.924,1.272
			c-2.01,2.73-6.682,8.33-11.803,9.271c-2.225,0.396-4.333-0.073-6.122-1.377c-3.196-2.329-4.325-6.956-3.016-12.374
			c0.842-3.49,2.668-7.14,5.396-10.351c-8.001,0.386-11.391,0.965-12.757,1.301l-7.488,26.442
			c3.742,8.143,23.661,24.712,31.273,30.592c1.863,1.566,3.51,1.735,4.514,0.543c0.834-0.983,1.003-2.663-0.596-4.014l-4.547-4.409
			c-0.041-0.04-0.07-0.087-0.109-0.129c-0.079-0.087-0.158-0.173-0.225-0.267c-0.049-0.068-0.089-0.14-0.131-0.212
			c-0.053-0.09-0.106-0.179-0.149-0.273c-0.038-0.083-0.065-0.168-0.095-0.253c-0.031-0.089-0.063-0.178-0.084-0.269
			c-0.022-0.092-0.034-0.186-0.047-0.28c-0.012-0.089-0.026-0.177-0.03-0.267c-0.004-0.097,0.002-0.193,0.007-0.29
			c0.005-0.088,0.008-0.174,0.021-0.261c0.015-0.099,0.04-0.195,0.065-0.293c0.021-0.083,0.04-0.165,0.069-0.246
			c0.035-0.098,0.08-0.191,0.126-0.286c0.037-0.077,0.071-0.153,0.115-0.227c0.054-0.091,0.119-0.175,0.184-0.261
			c0.04-0.053,0.07-0.11,0.113-0.161c0.017-0.019,0.038-0.033,0.055-0.052c0.019-0.021,0.032-0.046,0.052-0.066
			c0.052-0.053,0.112-0.092,0.167-0.14c0.073-0.065,0.144-0.13,0.222-0.186c0.077-0.055,0.157-0.1,0.238-0.147
			c0.083-0.048,0.165-0.098,0.252-0.137c0.086-0.039,0.173-0.068,0.261-0.098c0.088-0.03,0.176-0.062,0.266-0.083
			c0.09-0.021,0.18-0.033,0.271-0.045c0.094-0.013,0.186-0.027,0.281-0.031c0.087-0.004,0.173,0.002,0.26,0.006
			c0.1,0.005,0.2,0.009,0.299,0.024c0.079,0.012,0.156,0.033,0.234,0.051c0.106,0.025,0.21,0.051,0.313,0.088
			c0.07,0.025,0.136,0.059,0.204,0.09c0.106,0.048,0.21,0.097,0.31,0.158c0.062,0.038,0.12,0.084,0.18,0.127
			c0.072,0.052,0.148,0.094,0.216,0.153l11.981,10.401c0.814,0.689,2.058,1.453,3.318,0.989c0.938-0.339,1.696-1.289,1.893-2.363
			c0.13-0.724,0.051-1.781-1.063-2.73c-0.006,0-0.006,0-0.006,0c-0.211-0.179-0.379-0.388-0.525-0.607l-9.966-8.154
			c-1.238-1.012-1.419-2.832-0.407-4.07c1.012-1.238,2.832-1.419,4.07-0.407l10.107,8.27c0.226,0.185,0.405,0.404,0.56,0.634
			l2.922,2.468c0.899,0.763,1.809,0.983,2.792,0.622c1.21-0.435,2.25-1.668,2.482-2.934c0.181-1.006-0.158-1.866-1.034-2.623
			l-0.026-0.026l-12.393-10.409c-1.227-1.029-1.385-2.855-0.356-4.076c1.029-1.227,2.855-1.39,4.076-0.356l12.386,10.403
			c0.007,0.006,0.015,0.009,0.022,0.015c0.023,0.023,0.045,0.039,0.068,0.062l0.401,0.345c2.199,1.837,4.042-0.13,4.398-0.548
			c0.229-0.269,1-1.286,0.905-2.474C174.839,457.257,174.774,456.999,174.745,456.731z"/>
	</g>
	<g>
		
			<rect x="172.156" y="427.026" transform="matrix(-0.2725 -0.9622 0.9622 -0.2725 -174.4368 738.2029)" fill="#48A0DC" width="39.44" height="16.052"/>
	</g>
	<g>
		<path fill="#48A0DC" d="M168.962,423.056c-0.707,0.218-1.487,0.15-2.165-0.198c-17.643-9.087-25.104-7.498-25.181-7.485
			c-9.921,1.58-15.808,8.765-17.366,15.212c-0.707,2.928-0.384,5.478,0.8,6.343c0.512,0.368,1.009,0.469,1.665,0.356
			c3.022-0.551,7.117-5.288,8.988-8.146c0.687-1.06,1.995-1.557,3.22-1.198c0.766,0.135,3.697-0.563,6.099-1.478
			c0.95-0.373,2.058-0.201,2.866,0.458l29.649,24.172c0.988,0.836,1.713,1.757,2.23,2.718c0.877,0.057,2.005,0.02,2.954-0.378
			l-9.009-31.814L168.962,423.056z"/>
	</g>
	<g>
		<path d="M211.331,453.042l-12.323-43.513c-0.209-0.738-0.707-1.365-1.374-1.738c-0.667-0.376-1.459-0.466-2.205-0.257
			l-21.012,5.952c-1.179,0.334-1.973,1.354-2.085,2.504l-3.929,1.19c-19.056-9.599-27.397-7.66-27.965-7.465
			c-3.388,0.534-6.4,1.64-9.048,3.116c-9.598,0.225-15.423,0.691-18.998,1.254c-0.05-0.132-0.1-0.265-0.169-0.39
			c-0.376-0.673-1.001-1.165-1.738-1.374l-21.015-5.949c-1.529-0.458-3.14,0.452-3.573,1.995l-12.323,43.51
			c-0.435,1.543,0.458,3.143,1.995,3.578l21.015,5.952c0.26,0.073,0.523,0.108,0.788,0.108c0.489,0,0.975-0.124,1.41-0.367
			c0.67-0.373,1.165-1,1.374-1.735l1.532-5.412c8.485,11.141,27.288,25.83,29.725,27.711c2.216,1.877,4.449,2.64,6.467,2.64
			c2.501,0,4.678-1.17,6.102-2.854c0.636-0.751,1.13-1.63,1.47-2.576l1.091,0.948c1.956,1.651,4.161,2.516,6.326,2.516
			c0.921,0,1.832-0.159,2.718-0.475c2.651-0.955,4.737-3.301,5.478-6.094c1.6,0.396,3.284,0.339,4.901-0.243
			c3.177-1.142,5.619-4.025,6.224-7.354c0.068-0.384,0.113-0.769,0.13-1.153c2.385-0.243,4.59-1.526,6.128-3.346
			c1.001-1.182,1.723-2.603,2.07-4.11c1.161-0.014,2.478-0.162,3.785-0.599l0.443,1.566c0.209,0.735,0.707,1.362,1.374,1.735
			c0.435,0.243,0.921,0.368,1.413,0.368c0.266,0,0.531-0.034,0.792-0.108l21.012-5.952
			C210.873,456.185,211.766,454.585,211.331,453.042z M95.377,455.049l-15.447-4.375l10.746-37.945l15.447,4.373l-0.022,0.077
			c-0.001,0.004-0.002,0.008-0.004,0.013l-8.169,28.846c-0.001,0.004-0.002,0.007-0.003,0.011L95.377,455.049z M174.033,459.978
			c-0.357,0.418-2.199,2.385-4.398,0.548l-0.401-0.345c-0.023-0.023-0.045-0.039-0.068-0.062c-0.007-0.006-0.015-0.009-0.022-0.015
			l-12.386-10.403c-1.221-1.034-3.047-0.871-4.076,0.356c-1.029,1.221-0.871,3.047,0.356,4.076l12.393,10.409l0.026,0.026
			c0.876,0.757,1.215,1.617,1.034,2.623c-0.232,1.266-1.272,2.498-2.482,2.934c-0.984,0.362-1.893,0.141-2.792-0.622l-2.922-2.468
			c-0.155-0.231-0.333-0.449-0.56-0.634l-10.107-8.27c-1.238-1.012-3.058-0.831-4.07,0.407c-1.012,1.238-0.831,3.058,0.407,4.07
			l9.966,8.154c0.147,0.219,0.314,0.428,0.525,0.607c0,0,0,0,0.006,0c1.114,0.95,1.193,2.007,1.063,2.73
			c-0.197,1.074-0.955,2.024-1.893,2.363c-1.26,0.464-2.504-0.3-3.318-0.989l-11.981-10.401c-0.068-0.059-0.144-0.101-0.216-0.153
			c-0.06-0.043-0.118-0.089-0.18-0.127c-0.1-0.061-0.205-0.11-0.31-0.158c-0.068-0.031-0.134-0.064-0.204-0.09
			c-0.103-0.037-0.207-0.063-0.313-0.088c-0.078-0.019-0.155-0.039-0.234-0.051c-0.099-0.015-0.199-0.02-0.299-0.024
			c-0.087-0.004-0.173-0.01-0.26-0.006c-0.095,0.004-0.187,0.018-0.281,0.031c-0.091,0.013-0.181,0.024-0.271,0.045
			c-0.091,0.022-0.178,0.053-0.266,0.083c-0.088,0.03-0.176,0.059-0.261,0.098c-0.087,0.039-0.169,0.089-0.252,0.137
			c-0.081,0.047-0.161,0.092-0.238,0.147c-0.078,0.056-0.149,0.122-0.222,0.186c-0.055,0.048-0.115,0.087-0.167,0.14
			c-0.02,0.021-0.033,0.045-0.052,0.066c-0.017,0.019-0.038,0.032-0.055,0.052c-0.044,0.051-0.074,0.108-0.113,0.161
			c-0.065,0.086-0.13,0.17-0.184,0.261c-0.044,0.074-0.078,0.15-0.115,0.227c-0.045,0.095-0.091,0.188-0.126,0.286
			c-0.029,0.081-0.048,0.164-0.069,0.246c-0.025,0.097-0.05,0.194-0.065,0.293c-0.013,0.087-0.016,0.174-0.021,0.261
			c-0.005,0.097-0.012,0.193-0.007,0.29c0.004,0.09,0.017,0.178,0.03,0.267c0.013,0.094,0.025,0.187,0.047,0.28
			c0.022,0.092,0.054,0.18,0.084,0.269c0.029,0.085,0.057,0.17,0.095,0.253c0.043,0.094,0.096,0.183,0.149,0.273
			c0.042,0.072,0.082,0.143,0.131,0.212c0.067,0.094,0.145,0.18,0.225,0.267c0.038,0.042,0.068,0.089,0.109,0.129l4.547,4.409
			c1.599,1.351,1.43,3.03,0.596,4.014c-1.004,1.192-2.651,1.023-4.514-0.543c-7.612-5.881-27.531-22.449-31.273-30.592l7.488-26.442
			c1.366-0.336,4.756-0.915,12.757-1.301c-2.728,3.211-4.554,6.861-5.396,10.351c-1.309,5.418-0.181,10.045,3.016,12.374
			c1.789,1.303,3.897,1.772,6.122,1.377c5.122-0.941,9.794-6.54,11.803-9.271c1.976-0.09,4.245-0.712,5.924-1.272l28.344,23.109
			c0.458,0.388,0.74,0.789,0.91,1.185c0.029,0.268,0.094,0.527,0.193,0.773C175.034,458.692,174.262,459.709,174.033,459.978z
			 M179.768,453.81c-0.518-0.961-1.242-1.881-2.23-2.718l-29.649-24.172c-0.808-0.659-1.916-0.831-2.866-0.458
			c-2.402,0.916-5.334,1.614-6.099,1.478c-1.224-0.359-2.533,0.138-3.22,1.198c-1.871,2.857-5.966,7.595-8.988,8.146
			c-0.656,0.113-1.153,0.012-1.665-0.356c-1.184-0.865-1.507-3.415-0.8-6.343c1.557-6.447,7.445-13.632,17.366-15.212
			c0.076-0.014,7.538-1.602,25.181,7.485c0.678,0.348,1.458,0.416,2.165,0.198l4.751-1.439l9.009,31.814
			C181.773,453.83,180.646,453.866,179.768,453.81z M189.527,456.213l-10.746-37.948l15.444-4.376l10.746,37.948L189.527,456.213z"
			/>
	</g>
</g>
<path d="M186.006,409.105c-0.035,0-0.07,0-0.106-0.002c-1.158-0.058-2.051-1.044-1.993-2.202c0.181-3.639-1.193-7.127-4.043-9.187
	l-4.991-3.606l-5.196,7.191c-4.748,6.181-15.741,7.999-23.567,3.938c-0.091-0.048-0.179-0.102-0.263-0.162l-19.441-14.049
	c-2.358-1.685-5.038-2.386-7.532-1.967c-2.469,0.415-4.684,1.916-6.405,4.339l-10.178,14.084c-0.68,0.938-1.99,1.151-2.933,0.472
	c-0.939-0.68-1.151-1.992-0.472-2.933l10.168-14.069c2.372-3.339,5.53-5.431,9.123-6.035c3.602-0.604,7.396,0.353,10.68,2.698
	l19.32,13.962c5.943,2.995,14.714,1.66,18.133-2.789l6.39-8.843c0.326-0.452,0.818-0.755,1.368-0.843
	c0.551-0.088,1.112,0.045,1.564,0.371l6.692,4.836c4.019,2.904,6.03,7.722,5.778,12.8
	C188.046,408.233,187.117,409.105,186.006,409.105z"/>
</svg>
